<?xml version="1.0" encoding="UTF-8" standalone="no"?>
<!-- Uploaded to: SVG Repo, www.svgrepo.com, Generator: SVG Repo Mixer Tools -->

<svg
   fill="#000000"
   version="1.1"
   id="Capa_1"
   width="800px"
   height="800px"
   viewBox="0 0 456.365 456.364"
   xml:space="preserve"
   sodipodi:docname="devil.svg"
   inkscape:version="1.2.2 (b0a84865, 2022-12-01)"
   xmlns:inkscape="http://www.inkscape.org/namespaces/inkscape"
   xmlns:sodipodi="http://sodipodi.sourceforge.net/DTD/sodipodi-0.dtd"
   xmlns="http://www.w3.org/2000/svg"
   xmlns:svg="http://www.w3.org/2000/svg"><defs
   id="defs9" /><sodipodi:namedview
   id="namedview7"
   pagecolor="#ffffff"
   bordercolor="#000000"
   borderopacity="0.25"
   inkscape:showpageshadow="2"
   inkscape:pageopacity="0.0"
   inkscape:pagecheckerboard="0"
   inkscape:deskcolor="#d1d1d1"
   showgrid="false"
   inkscape:zoom="0.59"
   inkscape:cx="233.05085"
   inkscape:cy="707.62712"
   inkscape:window-width="1156"
   inkscape:window-height="1141"
   inkscape:window-x="0"
   inkscape:window-y="0"
   inkscape:window-maximized="0"
   inkscape:current-layer="g4" />
<g
   id="g4">
	<path
   d="m 125.104,131.159 c 0,-56.923 46.143,-103.068 103.075,-103.068 56.918,0 103.075,46.145 103.075,103.068 0.006,56.933 -46.151,103.078 -103.069,103.078 -56.938,0 -103.081,-46.145 -103.081,-103.078 z m -4.509,-29.388 c 8.127,-29.078 23.247,-40.711 23.247,-40.711 -26.903,8.394 -43.028,-50.008 -43.028,-50.008 -27.907,53.499 19.781,90.719 19.781,90.719 z M 330.468,90.718 c 0,0 47.688,-37.217 19.777,-90.718 0,0 -19.612,58.404 -46.518,50.008 0.001,0.006 18.614,11.632 26.741,40.71 z"
   id="path2"
   inkscape:label="path2"
   sodipodi:nodetypes="sscsscccccccc"
   style="fill:#eb2525;fill-opacity:1" />
<path
   d="m 379.30541,330.59517 v 87.6738 c 0,1.862 -0.745,3.659 -2.068,4.96599 -0.999,0.987 -2.264,1.637 -3.63,1.897 l -4.397,2.22199 c -5.03,2.542 -51.482,24.85495 -131.538,24.85495 -22.895,0 -46.777,-1.915 -70.982,-5.69199 l -23.338,-4.26799 c -18.994,-3.87699 -36.866,-8.47698 -54.784002,-14.06697 l -6.047,-1.89699 c -2.509,-0.78 -4.362,-2.914 -4.8,-5.50299 l -0.228,-1.359 c -0.068,-0.385 -0.098,-0.763 -0.098,-1.159 v -87.6688 c 0,-52.10889 35.276002,-97.83479 85.783002,-111.18976 2.305,-0.624 4.788,0 6.543,1.64 16.045,14.97796 36.872,23.22995 58.626,23.22995 21.749,0 42.566,-8.25199 58.62,-23.22995 1.756,-1.64 4.221,-2.264 6.543,-1.64 38.001,10.04598 68.854,39.61091 80.534,77.15583 0.071,0.236 0.131,0.473 0.178,0.697 l 4.504,22.43795 c 0.047,0.26 0.083,0.509 0.106,0.757 0.308,3.33199 0.473,6.73198 0.473,10.14198 z m -13.961,0 c 0,-2.867 -0.13,-5.72199 -0.372,-8.52898 l -4.351,-21.69796 c -9.972,-31.65193 -35.459,-56.80287 -67.093,-66.45485 -18.218,15.71696 -41.198,24.32295 -65.176,24.32295 -23.979,0 -46.976,-8.60599 -65.181,-24.32295 -42.472,12.90297 -71.819002,52.13888 -71.819002,96.68279 v 83.83781 l 1.377,0.426 c 17.457002,5.46199 34.888002,9.93598 53.271002,13.68897 l 23.017,4.20899 c 23.321,3.63499 46.479,5.49599 68.653,5.49599 78.141,0 123.357,-22.40095 125.243,-23.35395 l 2.43,-1.234 v -83.07081 z"
   id="path954"
   style="fill:#eb2525;fill-opacity:1" /></g>
</svg>
